<?xml version="1.0" encoding="UTF-8"?>
<svg id="a" xmlns="http://www.w3.org/2000/svg" viewBox="0 0 811.84 292.87"><defs><style>.b{fill:#1c0d82;}</style></defs><g><g><path class="b" d="M129.91,75.85h22.51l.58,11.28c2.84-3.23,6.5-6.08,10.96-8.54,4.46-2.46,9.15-3.69,14.07-3.69,1.55,0,2.97,.13,4.27,.39l-1.75,23.67c-2.46-.64-5.24-.97-8.34-.97-4.01,0-7.7,.94-11.06,2.81-3.37,1.88-5.76,4.17-7.18,6.89v66.16h-24.06V75.85Z"/><path class="b" d="M209.65,169.01c-7.5-4.53-13.26-10.61-17.27-18.24-4.01-7.63-6.01-16.04-6.01-25.22s2-17.65,6.01-25.42c4.01-7.76,9.77-13.9,17.27-18.43,7.5-4.53,16.36-6.79,26.58-6.79s19.08,2.26,26.58,6.79c7.5,4.53,13.26,10.67,17.27,18.43,4.01,7.76,6.02,16.24,6.02,25.42s-2.01,17.59-6.02,25.22c-4.01,7.63-9.77,13.71-17.27,18.24-7.5,4.53-16.36,6.79-26.58,6.79s-19.08-2.26-26.58-6.79Zm45.11-21.34c4.46-5.56,6.69-12.93,6.69-22.12s-2.23-16.78-6.69-22.41c-4.46-5.63-10.64-8.44-18.53-8.44s-14.07,2.81-18.53,8.44c-4.46,5.63-6.69,13.1-6.69,22.41s2.23,16.56,6.69,22.12c4.46,5.56,10.64,8.34,18.53,8.34s14.07-2.78,18.53-8.34Z"/><path class="b" d="M427.9,174.05c-5.11-1.16-10.38-2.97-15.81-5.43l2.13-20.57c5.43,3.23,10.51,5.66,15.23,7.27,4.72,1.62,9.6,2.43,14.65,2.43,9.83,0,14.75-3.23,14.75-9.7,0-3.49-1.29-6.18-3.88-8.05-2.59-1.87-7.24-4.11-13.97-6.69-9.57-3.49-16.62-7.47-21.15-11.93-4.53-4.46-6.79-10.51-6.79-18.14,0-8.41,3.23-15.23,9.7-20.47,6.47-5.24,15.2-7.86,26.19-7.86s21.02,2.52,30.07,7.57l-2.13,20.57c-4.92-3.36-9.54-5.95-13.87-7.76-4.33-1.81-8.89-2.72-13.68-2.72-4.14,0-7.34,.84-9.6,2.52-2.26,1.68-3.4,4.07-3.4,7.18,0,2.46,.68,4.46,2.04,6.01,1.36,1.55,3.27,2.94,5.72,4.17,2.46,1.23,6.53,2.94,12.22,5.14,9.44,3.62,16.23,7.6,20.37,11.93,4.14,4.34,6.21,10.12,6.21,17.37,0,9.19-3.3,16.3-9.9,21.34-6.6,5.04-15.98,7.57-28.13,7.57-6.21,0-11.87-.58-16.98-1.75Z"/><path class="b" d="M516.85,169.01c-7.5-4.53-13.26-10.61-17.27-18.24-4.01-7.63-6.01-16.04-6.01-25.22s2-17.65,6.01-25.42c4.01-7.76,9.77-13.9,17.27-18.43,7.5-4.53,16.36-6.79,26.58-6.79s19.08,2.26,26.58,6.79c7.5,4.53,13.26,10.67,17.27,18.43,4.01,7.76,6.02,16.24,6.02,25.42s-2.01,17.59-6.02,25.22c-4.01,7.63-9.77,13.71-17.27,18.24-7.5,4.53-16.36,6.79-26.58,6.79s-19.08-2.26-26.58-6.79Zm45.11-21.34c4.46-5.56,6.69-12.93,6.69-22.12s-2.23-16.78-6.69-22.41c-4.46-5.63-10.64-8.44-18.53-8.44s-14.07,2.81-18.53,8.44c-4.46,5.63-6.69,13.1-6.69,22.41s2.23,16.56,6.69,22.12c4.46,5.56,10.64,8.34,18.53,8.34s14.07-2.78,18.53-8.34Z"/><path class="b" d="M612.62,168.72c-4.14-4.72-6.21-10.83-6.21-18.33V19.43h24.06v121.06c0,5.18,.29,8.83,.87,10.96,.58,2.13,1.61,3.43,3.1,3.88,1.49,.45,4.04,.68,7.66,.68l-2.13,19.79h-8.73c-8.28,0-14.49-2.36-18.63-7.08Z"/><path class="b" d="M657.43,38.05h24.06v24.06h-24.06v-24.06Zm0,38.8h24.06v97.01h-24.06V76.85Z"/><path class="b" d="M793.85,75.85V5.94h-23.54V75.85h-26.07c-27.36,0-49.62,22.26-49.62,49.62s22.26,49.62,49.62,49.62,49.62-22.26,49.62-49.62v-26.07h12.04v-23.55h-12.04Zm-23.54,49.62c0,14.38-11.7,26.07-26.07,26.07s-26.07-11.7-26.07-26.07,11.7-26.07,26.07-26.07h26.07v26.07Z"/><path class="b" d="M105.19,75.85V5.94h-23.55V75.85h-26.07c-27.36,0-49.62,22.26-49.62,49.62s22.26,49.62,49.62,49.62,49.62-22.26,49.62-49.62v-26.07h12.04v-23.55h-12.04Zm-23.55,49.62c0,14.38-11.7,26.07-26.07,26.07s-26.07-11.7-26.07-26.07,11.7-26.07,26.07-26.07h26.07v26.07Z"/><path class="b" d="M353.48,75.77c-27.36,0-49.62,22.26-49.62,49.62v26.07h-13.46v23.54h13.46v66.34h23.55v-66.34h26.07c27.36,0,49.62-22.26,49.62-49.62s-22.26-49.62-49.62-49.62Zm0,75.69h-26.07v-26.07c0-14.38,11.7-26.07,26.07-26.07s26.07,11.7,26.07,26.07-11.7,26.07-26.07,26.07Z"/></g><g><path class="b" d="M367.47,239.91v-27.11h10.15c2.58,0,4.88,.54,6.89,1.62,2.01,1.08,3.6,2.63,4.74,4.65,1.15,2.02,1.72,4.45,1.72,7.29s-.58,5.27-1.72,7.29c-1.15,2.02-2.73,3.57-4.74,4.65-2.01,1.08-4.31,1.62-6.89,1.62h-10.15Zm4.96-4.41h5.19c1.76,0,3.22-.37,4.4-1.1,1.17-.74,2.06-1.79,2.65-3.16s.89-2.99,.89-4.88-.3-3.51-.89-4.88-1.48-2.42-2.65-3.16c-1.18-.74-2.64-1.1-4.4-1.1h-5.19v18.28Z"/><path class="b" d="M399.23,239.91v-27.11h4.96v27.11h-4.96Z"/><path class="b" d="M426.06,240.45c-2.87,0-5.32-.58-7.36-1.75s-3.6-2.81-4.69-4.93c-1.08-2.12-1.63-4.6-1.63-7.46s.6-5.3,1.81-7.41,2.88-3.75,5.01-4.91,4.58-1.74,7.36-1.74c1.43,0,2.81,.15,4.11,.44,1.31,.3,2.43,.68,3.36,1.14l-.54,4.72c-.97-.45-2.04-.82-3.2-1.11-1.17-.29-2.41-.44-3.73-.44-2.01,0-3.67,.4-4.96,1.21s-2.25,1.9-2.87,3.29c-.62,1.39-.93,2.96-.93,4.72,0,1.85,.31,3.48,.94,4.9,.63,1.42,1.57,2.53,2.82,3.34,1.25,.81,2.81,1.21,4.69,1.21,.57,0,1.16-.04,1.79-.12,.63-.08,1.27-.18,1.93-.31v-4.84h-3.72v-4.11h8.68v12.08c-.94,.55-2.19,1.04-3.75,1.44-1.56,.41-3.26,.61-5.12,.61Z"/><path class="b" d="M443.61,239.91v-27.11h4.96v27.11h-4.96Z"/><path class="b" d="M463.67,239.91v-22.31h-7.67v-4.8h20.29v4.8h-7.67v22.31h-4.96Z"/><path class="b" d="M490.16,217.64h1.28l-7.82,22.27h-4.8l9.65-27.11h4.69l9.64,27.11h-4.8l-7.82-22.27Zm6.31,15.84h-11.35v-4.34h11.35v4.34Z"/><path class="b" d="M509.76,239.91v-27.11h4.96v22.7h11.15v4.41h-16.11Z"/><path class="b" d="M545.58,239.91v-27.11h17.35v4.8h-12.28v5.77h9.53v4.8h-9.53v6.93h12.66v4.8h-17.74Z"/><path class="b" d="M568.39,239.91l9.49-13.9-9.02-13.21h5.5l6.24,9.22,6.23-9.22h5.5l-9.02,13.21,9.49,13.9h-5.5l-6.7-9.88-6.7,9.88h-5.5Z"/><path class="b" d="M599.57,239.91v-27.11h9.64c2.08,0,3.83,.31,5.27,.93s2.52,1.57,3.26,2.87c.74,1.29,1.11,2.94,1.11,4.96s-.37,3.72-1.1,5.05-1.81,2.3-3.23,2.94c-1.42,.64-3.15,.96-5.19,.96h-4.8v9.41h-4.96Zm4.96-13.56h4.22c1.69,0,2.96-.38,3.81-1.14,.85-.76,1.27-1.96,1.27-3.58s-.43-2.81-1.29-3.56c-.86-.75-2.16-1.12-3.9-1.12h-4.11v9.41Z"/><path class="b" d="M626.53,239.91v-27.11h17.35v4.8h-12.28v5.77h9.53v4.8h-9.53v6.93h12.66v4.8h-17.74Z"/><path class="b" d="M652.4,239.91v-27.11h9.91c1.87,0,3.51,.3,4.91,.89s2.49,1.5,3.26,2.71,1.16,2.75,1.16,4.61c0,1.99-.42,3.56-1.27,4.73s-1.96,2.1-3.34,2.78l6.12,11.39h-5.54l-5.23-10.07h-5.04v10.07h-4.96Zm4.96-14.21h3.64c2.04,0,3.46-.42,4.26-1.25s1.2-1.89,1.2-3.17c0-1.36-.39-2.42-1.18-3.19-.79-.77-2.15-1.15-4.09-1.15h-3.83v8.75Z"/><path class="b" d="M680.51,239.91v-27.11h4.96v27.11h-4.96Z"/><path class="b" d="M695.31,239.91v-27.11h17.35v4.8h-12.28v5.77h9.53v4.8h-9.53v6.93h12.66v4.8h-17.74Z"/><path class="b" d="M721.18,239.91v-27.11h4.88l11.58,17.51v-17.51h4.96v27.11h-4.07l-12.39-18.59v18.59h-4.96Z"/><path class="b" d="M764.71,240.45c-2.75,0-5.17-.58-7.26-1.75-2.09-1.17-3.72-2.81-4.89-4.92-1.17-2.11-1.75-4.59-1.75-7.43s.6-5.32,1.81-7.43c1.21-2.11,2.87-3.75,4.99-4.92,2.12-1.17,4.54-1.75,7.26-1.75,1.43,0,2.74,.15,3.93,.46,1.19,.3,2.21,.68,3.08,1.13l-.54,4.72c-.98-.45-1.99-.82-3.03-1.11-1.04-.29-2.2-.44-3.48-.44-1.9,0-3.48,.4-4.75,1.2-1.27,.8-2.23,1.9-2.87,3.31s-.97,3.01-.97,4.82,.31,3.42,.95,4.82c.63,1.41,1.58,2.51,2.84,3.31,1.26,.8,2.82,1.2,4.7,1.2,1.3,0,2.47-.14,3.5-.43,1.03-.28,2.07-.66,3.12-1.12l.54,4.73c-1.02,.48-2.14,.86-3.36,1.15s-2.49,.44-3.81,.44Z"/><path class="b" d="M779.89,239.91v-27.11h17.35v4.8h-12.28v5.77h9.53v4.8h-9.53v6.93h12.66v4.8h-17.74Z"/></g></g><g><path class="b" d="M610.15,286.95c-2.76,0-5.19-.59-7.28-1.76s-3.73-2.82-4.9-4.93c-1.17-2.12-1.76-4.6-1.76-7.45s.61-5.33,1.82-7.45,2.88-3.76,5-4.93,4.55-1.76,7.28-1.76c1.44,0,2.75,.15,3.94,.46,1.19,.3,2.22,.68,3.09,1.14l-.54,4.74c-.98-.45-2-.83-3.04-1.12-1.04-.29-2.21-.44-3.49-.44-1.9,0-3.49,.4-4.77,1.2s-2.24,1.91-2.88,3.32c-.65,1.41-.97,3.02-.97,4.84s.32,3.43,.95,4.84c.63,1.41,1.58,2.52,2.85,3.32,1.26,.8,2.83,1.2,4.71,1.2,1.31,0,2.48-.14,3.52-.43,1.04-.28,2.08-.66,3.13-1.13l.54,4.74c-1.02,.48-2.15,.86-3.37,1.16-1.22,.29-2.5,.44-3.82,.44Z"/><path class="b" d="M636.68,286.95c-2.59,0-4.89-.59-6.92-1.76s-3.61-2.82-4.76-4.93c-1.15-2.12-1.73-4.6-1.73-7.45s.58-5.33,1.73-7.45c1.15-2.12,2.74-3.76,4.76-4.93s4.33-1.76,6.92-1.76,4.9,.59,6.92,1.76c2.02,1.17,3.61,2.82,4.76,4.93,1.15,2.12,1.73,4.6,1.73,7.45s-.58,5.33-1.73,7.45c-1.15,2.12-2.74,3.76-4.76,4.93-2.02,1.17-4.33,1.76-6.92,1.76Zm0-4.82c1.81,0,3.33-.4,4.55-1.2,1.22-.8,2.13-1.91,2.74-3.31,.61-1.4,.91-3.01,.91-4.81s-.3-3.4-.91-4.81c-.61-1.4-1.52-2.51-2.74-3.31-1.22-.8-2.73-1.2-4.55-1.2s-3.33,.4-4.54,1.2c-1.22,.8-2.13,1.91-2.74,3.31-.61,1.41-.91,3.01-.91,4.81s.3,3.4,.91,4.81c.61,1.41,1.52,2.51,2.74,3.31,1.22,.8,2.73,1.2,4.54,1.2Z"/><path class="b" d="M656.69,286.41l3.77-27.19h4.08l6.64,12.39,6.6-12.39h4.08l3.77,27.19h-5.17l-2.6-20.43,1.36,.27-8.04,14.45-8.08-14.41,1.36-.27-2.6,20.4h-5.17Z"/><path class="b" d="M693.91,286.41v-27.19h9.67c2.08,0,3.85,.31,5.28,.93,1.44,.62,2.53,1.58,3.27,2.88,.74,1.29,1.12,2.95,1.12,4.97s-.37,3.73-1.11,5.06-1.82,2.31-3.24,2.95c-1.42,.64-3.16,.96-5.21,.96h-4.82v9.44h-4.97Zm4.97-13.6h4.24c1.7,0,2.97-.38,3.82-1.15,.85-.76,1.27-1.96,1.27-3.59s-.43-2.82-1.29-3.57-2.17-1.13-3.91-1.13h-4.12v9.44Z"/><path class="b" d="M727.83,264.07h1.28l-7.85,22.34h-4.82l9.67-27.19h4.7l9.67,27.19h-4.82l-7.85-22.34Zm6.33,15.89h-11.38v-4.35h11.38v4.35Z"/><path class="b" d="M747.37,286.41v-27.19h4.9l11.62,17.56v-17.56h4.97v27.19h-4.08l-12.43-18.65v18.65h-4.97Z"/><path class="b" d="M784.86,286.41v-10.99l-9.56-16.2h5.44l7.77,13.79h-2.33l7.77-13.79h5.44l-9.56,16.2v10.99h-4.97Z"/></g></svg>